# AST/ASF file generated using VICON BodyLanguage
# -----------------------------------------------
:version 1.10
:name VICON
:units
  mass 1.0
  length 0.45
  angle deg
:documentation
   .ast/.asf automatically generated from VICON data using
   VICON BodyBuilder and BodyLanguage model FoxedUp or BRILLIANT.MOD
:root
   order TX TY TZ RX RY RZ
   axis XYZ
   position 0 0 0  
   orientation 0 0 0 
:bonedata
  begin
     id 1 
     name lhipjoint
     direction 0.558404 -0.748506 0.357664 
     length 2.4234 
     axis 0 0 0  XYZ
  end
  begin
     id 2 
     name lfemur
     direction 0.34202 -0.939693 0  
     length 7.14567  
     axis 0 0 20  XYZ
    dof rx ry rz
    limits (-160.0 20.0)
           (-70.0 70.0)
           (-60.0 70.0)
  end
  begin
     id 3 
     name ltibia
     direction 0.34202 -0.939693 0   
     length 8.13956   
     axis 0 0 20   XYZ
    dof rx
    limits (-10.0 170.0)
  end
  begin
     id 4 
     name lfoot
     direction 0.0791314 -0.217412 0.972867   
     length 2.00134   
     axis -90 7.62852e-016 20   XYZ
    dof rx rz
    limits (-45.0 90.0)
           (-70.0 20.0)
  end
  begin
     id 5 
     name ltoes
     direction 1.53547e-011 -4.21922e-011 1   
     length 1.00735   
     axis -90 7.62852e-016 20   XYZ
    dof rx
    limits (-90.0 20.0)
  end
  begin
     id 6 
     name rhipjoint
     direction -0.496392 -0.78327 0.374276   
     length 2.31584  
     axis 0 0 0  XYZ 
  end
  begin
     id 7 
     name rfemur
     direction -0.34202 -0.939693 0   
     length 7.47417   
     axis 0 0 -20   XYZ
    dof rx ry rz
    limits (-160.0 20.0)
           (-70.0 70.0)
           (-70.0 60.0)
  end
  begin
     id 8 
     name rtibia
     direction -0.34202 -0.939693 0   
     length 7.69071   
     axis 0 0 -20   XYZ
    dof rx
    limits (-10.0 170.0)
 end
 begin
     id 9 
     name rfoot
     direction -0.103069 -0.28318 0.953512   
     length 2.16135  
     axis -90 -7.62852e-016 -20   XYZ
    dof rx rz
    limits (-45.0 90.0)
           (-20.0 70.0)
  end
  begin
     id 10 
     name rtoes
     direction -1.53581e-011 -4.21904e-011 1   
     length 1.07867   
     axis -90 -7.62852e-016 -20   XYZ
    dof rx
    limits (-90.0 20.0)
  end
  begin
     id 11 
     name lowerback
     direction -0.0258961 0.994776 -0.0987407   
     length 2.19412   
     axis 0 0 0   XYZ
    dof rx ry rz
    limits (-20.0 45.0)
           (-30.0 30.0)
           (-30.0 30.0)
  end
  begin
     id 12 
     name upperback
     direction 0.0402454 0.999185 0.00320666   
     length 2.18445   
     axis 0 0 0   XYZ
    dof rx ry rz
    limits (-20.0 45.0)
           (-30.0 30.0)
           (-30.0 30.0)
  end
  begin
     id 13 
     name thorax
     direction 0.0519376 0.997415 0.0496558   
     length 2.21487   
     axis 0 0 0   XYZ
    dof rx ry rz
    limits (-20.0 45.0)
           (-30.0 30.0)
           (-30.0 30.0)
  end
  begin
     id 14 
     name lowerneck
     direction -0.0921276 0.983211 0.157506   
     length 1.61201   
     axis 0 0 0   XYZ
    dof rx ry rz
    limits (-20.0 45.0)
           (-30.0 30.0)
           (-30.0 30.0)
  end
  begin
     id 15 
     name upperneck
     direction 0.0820814 0.98162 -0.172292   
     length 1.65275   
     axis 0 0 0   XYZ
    dof rx ry rz
    limits (-20.0 45.0)
           (-30.0 30.0)
           (-30.0 30.0)
  end
  begin
     id 16
     name head
     direction 0.0336554 0.996413 -0.0776455  
     length 1.66415  
     axis 0 0 0   XYZ
    dof rx ry rz
    limits (-20.0 45.0)
           (-30.0 30.0)
           (-30.0 30.0)
  end
  begin
     id 17 
     name lclavicle
     direction 0.94696 0.284418 -0.149576  
     length 3.41447  
     axis 0 0 0   XYZ
    dof ry rz
    limits (-20.0 10.0)
           (0.0 20.0)
  end
  begin
     id 18 
     name lhumerus
     direction 1 -0.000130264 -9.81312e-005   
     length 5.19964   
     axis 180 -30 -90   XYZ
    dof rx ry rz
    limits (-60.0 90.0)
           (-90.0 90.0)
           (-90.0 90.0)
  end
  begin
     id 19
     name lradius
     direction 1 -4.48961e-011 1.43854e-026   
     length 3.32189   
     axis 180 -30 -90   XYZ
    dof rx
    limits (-10.0 170.0)
  end
  begin
     id 20
     name lwrist
     direction 1 -4.48958e-011 3.1502e-026   
     length 1.66095   
     axis -1.97692e-014 90 90   XYZ
    dof ry
    limits (-180.0 0.0)
 end
  begin
     id 21 
     name lhand
     direction 1 -4.48927e-011 6.3004e-026   
     length 0.645616   
     axis -4.02019e-014 90 90   XYZ
    dof rx rz
    limits (-90.0 90.0)
           (-45.0 45.0)
  end
  begin
     id 22 
     name lfingers
     direction 1 -4.4904e-011 1.26008e-025   
     length 0.520512   
     axis -8.04039e-014 90 90   XYZ
    dof rx
    limits (0.0 90.0)
  end
  begin
     id 23
     name lthumb
     direction 0.707107 -6.34947e-011 0.707107   
     length 0.747354   
     axis -90 45 2.85299e-015   XYZ
    dof rx rz
    limits (-45.0 45.0)
           (-45.0 45.0)
  end
  begin
     id 24 
     name rclavicle
     direction -0.909391 0.383475 -0.161107   
     length 3.25176  
     axis 0 0 0   XYZ 
    dof ry rz
    limits (-10.0 20.0)
           (-20.0 0.0)
  end
  begin
     id 25 
     name rhumerus
     direction -1 -4.48965e-011 -1.81384e-027  
     length 5.6595   
     axis 180 30 90   XYZ
    dof rx ry rz
    limits (-90.0 60.0)
           (-90.0 90.0)
           (-90.0 90.0)
  end
  begin
     id 26 
     name rradius
     direction -1 -4.48996e-011 -8.09397e-027   
     length 3.37604   
     axis 180 30 90   XYZ
    dof rx
    limits (-10.0 170.0)
  end
  begin
     id 27 
     name rwrist
     direction -1 -4.48927e-011 -1.56669e-026   
     length 1.68802   
     axis 1.21142e-014 -90 -90   XYZ
    dof ry
    limits (-180.0 0.0)
  end
  begin
     id 28
     name rhand
     direction -1 -4.48912e-011 -3.13339e-026   
     length 0.824702   
     axis 1.99937e-014 -90 -90   XYZ
    dof rx rz
    limits (-90.0 90.0)
           (-45.0 45.0)
  end
  begin
     id 29
     name rfingers
     direction -1 -4.49011e-011 -6.26677e-026   
     length 0.664896   
     axis 3.99874e-014 -90 -90   XYZ
    dof rx
    limits (0.0 90.0)
  end
  begin
     id 30
     name rthumb
     direction -0.707107 -6.34931e-011 0.707107   
     length 0.954662   
     axis -90 -45 -2.85299e-015   XYZ
    dof rx rz
    limits (-45.0 45.0)
           (-45.0 45.0)
  end
:hierarchy
  begin
    root lhipjoint rhipjoint lowerback
    lhipjoint lfemur
    lfemur ltibia
    ltibia lfoot
    lfoot ltoes
    rhipjoint rfemur
    rfemur rtibia
    rtibia rfoot
    rfoot rtoes
    lowerback upperback
    upperback thorax
    thorax lowerneck lclavicle rclavicle
    lowerneck upperneck
    upperneck head
    lclavicle lhumerus
    lhumerus lradius
    lradius lwrist
    lwrist lhand lthumb
    lhand lfingers
    rclavicle rhumerus
    rhumerus rradius
    rradius rwrist
    rwrist rhand rthumb
    rhand rfingers
  end

#!OML:ASF F:\VICON\USERDATA\INSTALL\rory3\rory3.ASF
:FULLY-SPECIFIED
:DEGREES
1
root 9.5234 17.7534 -14.1142 3.52634 -37.477 -5.55485
lowerback 1.85717 -0.731567 -1.70699
upperback -1.31094 -0.959278 4.13724
thorax -2.29415 -0.426592 5.27746
lowerneck -7.8737 -8.3112 -19.586
upperneck 22.9033 -11.7888 13.1159
head 10.6025 -6.01473 6.50634
rclavicle 6.07287e-014 1.59028e-014
rhumerus -37.0474 -18.2582 -68.3538
rradius 27.3509
rwrist -9.79806
rhand -9.89371 16.9544
rfingers 7.12502
rthumb 16.086 -12.398
lclavicle 6.07287e-014 1.59028e-014
lhumerus -31.2159 2.43749 85.433
lradius 26.459
lwrist -15.0991
lhand 0.502761 31.2731
lfingers 7.12502
lthumb 26.0718 59.5038
rfemur -13.1391 7.72951 16.2553
rtibia 34.7909
rfoot -17.4417 -6.5588
rtoes 6.7742
lfemur -7.02189 -0.137161 -17.2171
ltibia 34.6886
lfoot -24.7482 13.8209
ltoes 1.27931
2
root 9.52329 17.7516 -14.1114 3.44474 -37.5449 -5.47513
lowerback 1.82418 -0.710358 -1.78809
upperback -1.23912 -0.935447 4.07468
thorax -2.20361 -0.41639 5.25535
lowerneck -7.99613 -8.35314 -19.2808
upperneck 22.8216 -11.8257 12.9569
head 10.5708 -6.01249 6.382
rclavicle -3.84276e-014 2.22639e-014
rhumerus -36.9824 -18.1096 -68.4355
rradius 27.4676
rwrist -10.0887
rhand -9.99585 16.9745
rfingers 7.12502
rthumb 15.9876 -12.3857
lclavicle -3.84276e-014 2.22639e-014
lhumerus -31.0952 2.19429 85.4856
lradius 26.3592
lwrist -14.9394
lhand 0.366421 31.2809
lfingers 7.12502
lthumb 25.9413 59.5308
rfemur -13.1246 7.79069 16.1619
rtibia 34.8539
rfoot -17.6187 -6.36767
rtoes 7.9528
lfemur -6.93223 0.0271588 -17.2848
ltibia 34.6214
lfoot -24.6971 13.8283
ltoes 1.03057
3
root 9.52485 17.7492 -14.1064 3.30611 -37.5282 -5.30536
lowerback 1.74709 -0.759111 -1.9021
upperback -1.18013 -1.00546 4.03939
thorax -2.09079 -0.452998 5.28316
lowerneck -8.35794 -8.36849 -18.8646
upperneck 23.0413 -11.7294 12.4084
head 10.6386 -5.97058 6.11224
rclavicle 7.36746e-015 5.56597e-015
rhumerus -36.8413 -18.2099 -68.4004
rradius 27.4525
rwrist -10.0558
rhand -10.2193 16.9482
rfingers 7.12502
rthumb 15.7724 -12.4292
lclavicle 7.36746e-015 5.56597e-015
lhumerus -31.0333 2.12152 85.5777
lradius 26.3276
lwrist -14.4341
lhand 0.0145065 31.1631
lfingers 7.12502
lthumb 25.6043 59.4619
rfemur -13.0577 7.72126 15.9873
rtibia 34.8539
rfoot -17.7222 -6.25562
rtoes 8.1961
lfemur -6.87815 0.00564783 -17.4557
ltibia 34.6099
lfoot -24.7405 13.8009
ltoes 1.18071
4
root 9.5275 17.7473 -14.1029 3.32896 -37.5022 -5.37243
lowerback 1.69897 -0.810925 -1.81954
upperback -1.18084 -1.07248 4.08504
thorax -2.05798 -0.48843 5.28505
lowerneck -8.96736 -8.42063 -18.446
upperneck 23.5681 -11.6177 11.6471
head 10.8543 -5.93883 5.76337
rclavicle 5.93621e-014 2.74323e-014
rhumerus -36.7984 -18.3746 -68.2144
rradius 27.4489
rwrist -10.0436
rhand -10.1207 16.9036
rfingers 7.12502
rthumb 15.8674 -12.4663
lclavicle 5.93621e-014 2.74323e-014
lhumerus -31.1345 2.25395 85.6548
lradius 26.3786
lwrist -14.1413
lhand -0.370113 31.0472
lfingers 7.12502
lthumb 25.2358 59.3984
rfemur -13.0276 7.74682 16.042
rtibia 34.8674
rfoot -17.6985 -6.31072
rtoes 7.88312
lfemur -6.83404 -0.139442 -17.4396
ltibia 34.5773
lfoot -24.7537 13.8664
ltoes 1.50768
5
root 9.52973 17.7455 -14.0978 3.27067 -37.5437 -5.31553
lowerback 1.63708 -0.797016 -1.79719
upperback -1.16719 -1.05402 4.05332
thorax -2.01186 -0.480723 5.23685
lowerneck -9.203 -8.46678 -18.2177
upperneck 23.731 -11.6064 11.3023
head 10.9211 -5.93993 5.59195
rclavicle 4.76089e-014 -2.5842e-014
rhumerus -36.8213 -18.5711 -68.0397
rradius 27.4831
rwrist -10.013
rhand -10.0305 16.8996
rfingers 7.12502
rthumb 15.9543 -12.4634
lclavicle 4.76089e-014 -2.5842e-014
lhumerus -31.1481 2.33243 85.6722
lradius 26.3171
lwrist -14.1339
lhand -0.641134 30.9735
lfingers 7.12502
lthumb 24.9761 59.3611
rfemur -12.9934 7.79908 15.9639
rtibia 34.8651
rfoot -17.7096 -6.24509
rtoes 8.23713
lfemur -6.76682 -0.213927 -17.5443
ltibia 34.5533
lfoot -24.7376 13.9809
ltoes 1.55834
6
root 9.53139 17.7446 -14.0909 3.11677 -37.5858 -5.12249
lowerback 1.57614 -0.761674 -1.89615
upperback -1.152 -1.00985 4.00407
thorax -1.96571 -0.458365 5.23885
lowerneck -9.12513 -8.46572 -18.3067
upperneck 23.6898 -11.6228 11.3928
head 10.9056 -5.94879 5.64001
rclavicle -9.19503e-014 -2.78299e-015
rhumerus -36.8381 -18.579 -67.9538
rradius 27.5532
rwrist -10.1213
rhand -10.2137 16.9527
rfingers 7.12502
rthumb 15.7779 -12.4242
lclavicle -9.19503e-014 -2.78299e-015
lhumerus -31.1477 2.36344 85.7186
lradius 26.2461
lwrist -14.1587
lhand -0.880189 30.8879
lfingers 7.12502
lthumb 24.747 59.3071
rfemur -12.942 7.72001 15.752
rtibia 34.8513
rfoot -17.8249 -6.12839
rtoes 8.5824
lfemur -6.7017 -0.318251 -17.765
ltibia 34.5442
lfoot -24.8014 14.0504
ltoes 1.79625
7
root 9.5337 17.7458 -14.0876 3.14 -37.5762 -5.18841
lowerback 1.5954 -0.744701 -1.83565
upperback -1.18722 -0.984571 4.049
thorax -2.01578 -0.444914 5.25169
lowerneck -9.06751 -8.46038 -18.573
upperneck 23.7293 -11.639 11.6103
head 10.9454 -5.96225 5.76711
rclavicle 3.64894e-014 -7.95139e-015
rhumerus -36.8563 -18.8095 -67.7112
rradius 27.5106
rwrist -10.0342
rhand -10.3714 17.0091
rfingers 7.12502
rthumb 15.626 -12.3798
lclavicle 3.64894e-014 -7.95139e-015
lhumerus -31.2747 2.42676 85.8078
lradius 26.266
lwrist -14.2756
lhand -0.91656 30.8507
lfingers 7.12502
lthumb 24.7122 59.2747
rfemur -12.9198 7.66376 15.7956
rtibia 34.8457
rfoot -17.8572 -6.18628
rtoes 7.90823
lfemur -6.69284 -0.350593 -17.7223
ltibia 34.5373
lfoot -24.8595 14.0227
ltoes 2.14354
8
root 9.53592 17.7471 -14.0861 3.18903 -37.5425 -5.22699
lowerback 1.58593 -0.751814 -1.79495
upperback -1.2045 -0.992658 4.06222
thorax -2.02785 -0.449047 5.24267
lowerneck -8.98927 -8.48169 -18.708
upperneck 23.6832 -11.6863 11.727
head 10.9389 -5.98682 5.82758
rclavicle -1.39174e-013 -9.93923e-015
rhumerus -36.7961 -19.418 -67.3938
rradius 27.3189
rwrist -9.5622
rhand -10.5125 17.0035
rfingers 7.12502
rthumb 15.4901 -12.3959
lclavicle -1.39174e-013 -9.93923e-015
lhumerus -31.3258 2.48808 85.8379
lradius 26.2763
lwrist -14.1661
lhand -1.05472 30.975
lfingers 7.12502
lthumb 24.5798 59.417
rfemur -12.9463 7.62585 15.8202
rtibia 34.8445
rfoot -17.7588 -6.26647
rtoes 6.931
lfemur -6.73377 -0.323513 -17.6954
ltibia 34.5385
lfoot -24.8441 13.9501
ltoes 2.1782
9
root 9.53678 17.7457 -14.085 3.15613 -37.5536 -5.12776
lowerback 1.52434 -0.759891 -1.88878
upperback -1.17478 -1.00665 4.0335
thorax -1.96006 -0.456549 5.26478
lowerneck -8.95199 -8.50941 -18.6845
upperneck 23.6097 -11.7353 11.7459
head 10.9125 -6.00519 5.82225
rclavicle -2.58793e-014 -1.51076e-014
rhumerus -36.6224 -19.8105 -67.2537
rradius 27.0878
rwrist -9.13511
rhand -10.5131 17.2185
rfingers 7.12502
rthumb 15.4895 -12.1811
lclavicle -2.58793e-014 -1.51076e-014
lhumerus -31.2062 2.47487 85.8396
lradius 26.1653
lwrist -13.7617
lhand -0.952765 31.1611
lfingers 7.12502
lthumb 24.6775 59.5899
rfemur -12.9751 7.59312 15.7108
rtibia 34.8435
rfoot -17.6828 -6.16844
rtoes 7.01277
lfemur -6.76947 -0.28601 -17.7899
ltibia 34.5588
lfoot -24.7946 13.9597
ltoes 1.56095
10
root 9.5375 17.7438 -14.0859 3.16234 -37.5317 -5.1131
lowerback 1.507 -0.775867 -1.95085
upperback -1.16685 -1.02958 4.04176
thorax -1.9386 -0.467683 5.30909
lowerneck -9.19395 -8.53534 -18.6681
upperneck 23.7707 -11.7649 11.8129
head 11.0286 -6.00469 5.83677
rclavicle 5.48397e-014 -3.37934e-014
rhumerus -36.4733 -19.9897 -67.1872
rradius 26.9292
rwrist -8.93064
rhand -10.3421 17.4423
rfingers 7.12502
rthumb 15.6542 -11.9444
lclavicle 5.48397e-014 -3.37934e-014
lhumerus -31.0631 2.42639 85.8502
lradius 26.0169
lwrist -13.4233
lhand -0.276551 31.2485
lfingers 7.12502
lthumb 25.3255 59.587
rfemur -12.9983 7.5828 15.6914
rtibia 34.8594
rfoot -17.7316 -6.0801
rtoes 7.78531
lfemur -6.80251 -0.228052 -17.7826
ltibia 34.5781
lfoot -24.7963 13.8851
ltoes 1.32425
11
root 9.53926 17.7436 -14.0889 3.17371 -37.3893 -5.12919
lowerback 1.57629 -0.816464 -2.01482
upperback -1.18786 -1.08473 4.06371
thorax -1.99196 -0.492897 5.37209
lowerneck -9.73622 -8.58653 -18.5238
upperneck 24.145 -11.7952 11.7814
head 11.2694 -5.99455 5.78838
rclavicle 7.12892e-014 3.77691e-014
rhumerus -36.4229 -19.9039 -67.2363
rradius 27.0053
rwrist -9.15172
rhand -10.4506 17.2949
rfingers 7.12502
rthumb 15.5497 -12.0999
lclavicle 7.12892e-014 3.77691e-014
lhumerus -31.0366 2.60166 85.806
lradius 25.9616
lwrist -13.3859
lhand 0.0705325 31.2797
lfingers 7.12502
lthumb 25.6579 59.5708
rfemur -13.0085 7.57596 15.7286
rtibia 34.8981
rfoot -17.8521 -6.16961
rtoes 8.27864
lfemur -6.83507 -0.274563 -17.7403
ltibia 34.5813
lfoot -24.7946 13.7631
ltoes 1.71508
12
root 9.54072 17.7434 -14.0915 3.0768 -37.3094 -5.03308
lowerback 1.63028 -0.80679 -2.10098
upperback -1.1926 -1.074 4.02696
thorax -2.0276 -0.485452 5.38363
lowerneck -9.89017 -8.64356 -18.4597
upperneck 24.1905 -11.8767 11.819
head 11.3297 -6.01668 5.77488
rclavicle -2.16178e-014 1.47101e-014
rhumerus -36.4914 -19.7625 -67.2782
rradius 27.1696
rwrist -9.55389
rhand -10.7392 17.1432
rfingers 7.12502
rthumb 15.2717 -12.273
lclavicle -2.16178e-014 1.47101e-014
lhumerus -31.1054 2.75831 85.791
lradius 25.9052
lwrist -13.5504
lhand -0.230124 31.1387
lfingers 7.12502
lthumb 25.3699 59.4709
rfemur -12.9744 7.60946 15.6567
rtibia 34.9413
rfoot -17.8663 -6.21537
rtoes 8.21972
lfemur -6.81186 -0.207787 -17.7948
ltibia 34.5826
lfoot -24.7233 13.6826
ltoes 1.65443
13
root 9.54229 17.7414 -14.0924 2.91993 -37.3303 -4.80247
lowerback 1.65367 -0.754031 -2.29987
upperback -1.22675 -1.00775 4.00737
thorax -2.08051 -0.447469 5.47587
lowerneck -9.59774 -8.69891 -18.6744
upperneck 23.9541 -11.9723 11.9223
head 11.2235 -6.07597 5.83672
rclavicle -2.94574e-014 -1.78906e-014
rhumerus -36.6124 -19.9779 -66.9833
rradius 27.1543
rwrist -9.4693
rhand -10.607 17.3451
rfingers 7.12502
rthumb 15.399 -12.0613
lclavicle -2.94574e-014 -1.78906e-014
lhumerus -31.1738 2.65855 85.9519
lradius 25.8352
lwrist -13.3502
lhand -0.459077 31.0625
lfingers 7.12502
lthumb 25.1506 59.4257
rfemur -12.9742 7.61119 15.4395
rtibia 34.9814
rfoot -17.7612 -6.18406
rtoes 7.26935
lfemur -6.79586 -0.0881051 -17.9891
ltibia 34.5802
lfoot -24.6399 13.6745
ltoes 1.36634
